HIERARCHY
ROOT joint_Root
{
	OFFSET 0.0 0.0 0.0
	CHANNELS 6 Xposition Yposition Zposition Zrotation Xrotation Yrotation 
	JOINT Hips
	{
		OFFSET 4.5925 91.4895 -427.239
		CHANNELS 6 Xposition Yposition Zposition Zrotation Xrotation Yrotation 
		JOINT Spine
		{
			OFFSET 15.7357 0.0 0.0
			CHANNELS 6 Xposition Yposition Zposition Zrotation Xrotation Yrotation 
			JOINT Chest
			{
				OFFSET 8.98455 -0.406207 0.0
				CHANNELS 6 Xposition Yposition Zposition Zrotation Xrotation Yrotation 
				JOINT Neck
				{
					OFFSET 16.3773 0.0 0.0
					CHANNELS 6 Xposition Yposition Zposition Zrotation Xrotation Yrotation 
					JOINT Head
					{
						OFFSET 6.45672 0.0 0.0
						CHANNELS 6 Xposition Yposition Zposition Zrotation Xrotation Yrotation 
						End Site
						{
							OFFSET 0.0 0.0 0.0
						}
					}
				}
				JOINT Shoulder_L
				{
					OFFSET 12.9942 -0.242716 4.98039
					CHANNELS 6 Xposition Yposition Zposition Zrotation Xrotation Yrotation 
					JOINT UpperArm_L
					{
						OFFSET 5.34809 0.0 0.0
						CHANNELS 6 Xposition Yposition Zposition Zrotation Xrotation Yrotation 
						JOINT LowerArm_L
						{
							OFFSET 24.3286 1.87007e-05 0.0
							CHANNELS 6 Xposition Yposition Zposition Zrotation Xrotation Yrotation 
							JOINT Hand_L
							{
								OFFSET 22.2916 0.0 0.0
								CHANNELS 6 Xposition Yposition Zposition Zrotation Xrotation Yrotation 
								End Site
								{
									OFFSET 0.0 0.0 0.0
								}
							}
						}
					}
				}
				JOINT Shoulder_R
				{
					OFFSET 12.9945 -0.242716 -4.98039
					CHANNELS 6 Xposition Yposition Zposition Zrotation Xrotation Yrotation 
					JOINT UpperArm_R
					{
						OFFSET -5.34813 0.0 0.0
						CHANNELS 6 Xposition Yposition Zposition Zrotation Xrotation Yrotation 
						JOINT LowerArm_R
						{
							OFFSET -24.3289 0.000322201 0.0
							CHANNELS 6 Xposition Yposition Zposition Zrotation Xrotation Yrotation 
							JOINT Hand_R
							{
								OFFSET -22.2915 -0.000108084 0.0
								CHANNELS 6 Xposition Yposition Zposition Zrotation Xrotation Yrotation 
								End Site
								{
									OFFSET 0.0 0.0 0.0
								}
							}
						}
					}
				}
			}
		}
		JOINT UpperLeg_L
		{
			OFFSET -2.19248 -6.46944 0.0
			CHANNELS 6 Xposition Yposition Zposition Zrotation Xrotation Yrotation 
			JOINT LowerLeg_L
			{
				OFFSET 39.0811 0.0 -1.23785e-05
				CHANNELS 6 Xposition Yposition Zposition Zrotation Xrotation Yrotation 
				JOINT Foot_L
				{
					OFFSET 40.9854 0.0 -1.26872e-05
					CHANNELS 6 Xposition Yposition Zposition Zrotation Xrotation Yrotation 
					JOINT Toes_L
					{
						OFFSET 11.7543 0.0 0.0
						CHANNELS 6 Xposition Yposition Zposition Zrotation Xrotation Yrotation 
						End Site
						{
							OFFSET 0.0 0.0 0.0
						}
					}
				}
			}
		}
		JOINT UpperLeg_R
		{
			OFFSET -2.19251 6.46944 0.0
			CHANNELS 6 Xposition Yposition Zposition Zrotation Xrotation Yrotation 
			JOINT LowerLeg_R
			{
				OFFSET -39.0811 -0.00228153 -0.0401928
				CHANNELS 6 Xposition Yposition Zposition Zrotation Xrotation Yrotation 
				JOINT Foot_R
				{
					OFFSET -40.9854 0.0 0.0
					CHANNELS 6 Xposition Yposition Zposition Zrotation Xrotation Yrotation 
					JOINT Toes_R
					{
						OFFSET -11.7543 0.0 0.0
						CHANNELS 6 Xposition Yposition Zposition Zrotation Xrotation Yrotation 
						End Site
						{
							OFFSET 0.0 0.0 0.0
						}
					}
				}
			}
		}
	}
}
MOTION
Frames:	7
Frame Time:	0.0333333
0.000000 0.000000 0.000000 0.000000 0.000000 -0.000000 5.891600 84.207800 -425.095000 91.028200 -8.934630 -13.698400 15.735700 0.000005 -0.000001 104.741000 80.850600 -109.231000 8.984550 -0.406207 -0.000000 10.148700 4.532850 -9.379600 16.377300 -0.000001 -0.000001 -1.823780 -3.997250 1.549160 6.456720 -0.000001 -0.000000 -14.950200 -11.156200 6.638070 12.994200 -0.242716 4.980390 -92.825800 6.456930 -66.278200 5.348090 -0.000007 -0.000001 -55.056900 -9.651180 5.596880 24.328600 0.000019 0.000005 10.375600 8.424410 -51.326100 22.291600 -0.000001 0.000005 0.249027 5.450420 -4.660610 12.994500 -0.242716 -4.980390 88.869200 7.290920 -81.155600 -5.348130 -0.000001 -0.000004 -62.517400 28.982900 -17.895900 -24.328900 0.000322 -0.000009 -18.382100 -10.994400 -60.164100 -22.291500 -0.000108 -0.000004 11.712300 5.516160 -7.150730 -2.192480 -6.469440 -0.000000 172.060000 -9.950440 -48.466500 39.081100 -0.000007 -0.000012 -0.432920 0.300277 55.255400 40.985400 -0.000006 -0.000013 2.330700 -8.321450 -72.076000 11.754300 -0.000000 0.000003 -0.003016 -0.040785 -18.235400 -2.192510 6.469440 -0.000001 171.994000 8.444410 167.495000 -39.081100 -0.002282 -0.040193 0.555713 -0.025094 87.407700 -40.985400 0.000008 0.000006 -3.121870 6.280810 -9.913860 -11.754300 -0.000006 -0.000006 -0.011269 -0.112889 -21.174200
0.000000 0.000000 0.000000 0.000000 0.000000 -0.000000 5.981510 81.266500 -418.549000 94.680500 -3.919370 -11.973600 15.735700 0.000005 -0.000001 92.700600 80.078100 -97.851500 8.984550 -0.406207 -0.000000 12.110500 0.730756 -10.377300 16.377300 -0.000001 -0.000001 -3.845320 -5.277250 0.972410 6.456720 -0.000001 -0.000000 -14.035600 -10.827700 8.064760 12.994200 -0.242716 4.980390 -93.322900 8.649910 -68.895400 5.348090 -0.000007 -0.000001 -56.327500 -6.608430 -10.480200 24.328600 0.000019 0.000005 6.731510 6.273210 -47.208400 22.291600 -0.000001 0.000005 0.285956 5.479220 -5.718740 12.994500 -0.242716 -4.980390 88.266000 10.973300 -80.965000 -5.348130 -0.000001 -0.000004 -63.527100 27.099900 -7.852390 -24.328900 0.000322 -0.000009 -20.203200 -19.798000 -47.428400 -22.291500 -0.000108 -0.000004 9.195690 5.498760 -6.483570 -2.192480 -6.469440 -0.000000 169.585000 -5.608730 -45.702000 39.081100 -0.000007 -0.000012 -0.711055 0.355297 63.451400 40.985400 -0.000006 -0.000013 1.713410 -7.972360 -80.961700 11.754300 -0.000000 0.000003 -0.000010 -0.000136 -16.582900 -2.192510 6.469440 -0.000001 170.743000 11.276800 154.082000 -39.081100 -0.002282 -0.040193 0.557423 0.189073 108.849000 -40.985400 0.000008 0.000006 -4.627520 7.691680 -3.399270 -11.754300 -0.000006 -0.000006 -0.010393 -0.106553 -20.914900
0.000000 0.000000 0.000000 0.000000 0.000000 -0.000000 5.757290 79.239100 -411.984000 95.677300 1.194030 -11.183300 15.735700 0.000005 -0.000001 86.503800 79.324800 -90.967700 8.984550 -0.406207 -0.000000 13.504000 -1.511520 -8.750680 16.377300 -0.000001 -0.000001 -5.053070 -6.850620 0.522286 6.456720 -0.000001 -0.000000 -13.672800 -10.791600 7.759770 12.994200 -0.242716 4.980390 -91.765000 5.587920 -72.457300 5.348090 -0.000007 -0.000001 -62.745700 -2.064910 -23.778000 24.328600 0.000019 0.000005 11.532300 8.650510 -53.595200 22.291600 -0.000001 0.000005 -1.627510 5.480620 -5.784260 12.994500 -0.242716 -4.980390 88.111400 9.834310 -79.071700 -5.348130 -0.000001 -0.000004 -65.559700 29.255600 1.344350 -24.328900 0.000322 -0.000009 -15.327600 -26.626500 -31.393300 -22.291500 -0.000108 -0.000004 9.164590 5.470010 -5.360150 -2.192480 -6.469440 -0.000000 169.762000 -3.554360 -41.213000 39.081100 -0.000007 -0.000012 -0.818014 0.330510 68.001100 40.985400 -0.000006 -0.000013 1.804530 -5.911130 -88.442700 11.754300 -0.000000 0.000003 -0.000049 -0.000554 -16.599100 -2.192510 6.469440 -0.000001 172.586000 12.586300 137.694000 -39.081100 -0.002282 -0.040193 0.379483 0.254269 124.067000 -40.985400 0.000008 0.000006 -6.304750 6.887790 2.850350 -11.754300 -0.000006 -0.000006 -0.009629 -0.100842 -20.681300
0.000000 0.000000 0.000000 0.000000 0.000000 -0.000000 4.940920 78.728100 -404.068000 94.438000 6.988030 -11.006400 15.735700 0.000005 -0.000001 77.421600 79.099500 -80.382300 8.984550 -0.406207 -0.000000 13.426300 -4.842550 -5.354370 16.377300 -0.000001 -0.000001 -5.145140 -7.012700 0.170057 6.456720 -0.000001 -0.000000 -12.822100 -9.097270 7.959970 12.994200 -0.242716 4.980390 -90.423100 1.533820 -74.606100 5.348090 -0.000007 -0.000001 -61.729000 4.358820 -32.635400 24.328600 0.000019 0.000005 9.629610 4.487680 -65.285000 22.291600 -0.000001 0.000005 -1.313140 5.486970 -6.018070 12.994500 -0.242716 -4.980390 87.877600 8.972790 -76.631300 -5.348130 -0.000001 -0.000004 -65.514300 25.333900 13.264700 -24.328900 0.000322 -0.000009 -3.181110 -6.755010 -25.311300 -22.291500 -0.000108 -0.000004 6.600060 5.490440 -6.162910 -2.192480 -6.469440 -0.000000 173.608000 -2.859550 -33.774600 39.081100 -0.000007 -0.000012 -0.823131 0.343919 67.325800 40.985400 -0.000006 -0.000013 2.267940 -1.705870 -94.417400 11.754300 -0.000000 0.000003 -0.000060 -0.000667 -16.603400 -2.192510 6.469440 -0.000001 177.260000 14.227200 123.916000 -39.081100 -0.002282 -0.040193 0.209142 0.173230 130.103000 -40.985400 0.000008 0.000006 -3.938510 4.660330 1.790680 -11.754300 -0.000006 -0.000006 -0.013014 -0.124929 -21.667400
0.000000 0.000000 0.000000 0.000000 0.000000 -0.000000 3.772720 80.398300 -394.749000 91.332500 10.981200 -12.027300 15.735700 0.000005 -0.000001 68.128200 79.460600 -69.313800 8.984550 -0.406207 -0.000000 11.794600 -7.827470 -1.563350 16.377300 -0.000001 -0.000001 -4.692370 -6.447770 0.512169 6.456720 -0.000001 -0.000000 -11.380500 -6.218520 7.888700 12.994200 -0.242716 4.980390 -89.485800 -2.001190 -75.582800 5.348090 -0.000007 -0.000001 -59.314800 6.298630 -37.506300 24.328600 0.000019 0.000005 7.994830 1.769950 -77.609200 22.291600 -0.000001 0.000005 1.198130 5.487100 -6.015560 12.994500 -0.242716 -4.980390 87.776500 7.585000 -73.603000 -5.348130 -0.000001 -0.000004 -63.777400 27.429200 22.836800 -24.328900 0.000322 -0.000009 -4.303420 -7.876500 -28.747800 -22.291500 -0.000108 -0.000004 3.770290 5.492660 -6.229750 -2.192480 -6.469440 -0.000000 -179.732000 -3.413240 -23.573800 39.081100 -0.000007 -0.000012 -0.803916 0.503799 57.927600 40.985400 -0.000006 -0.000013 2.171760 2.779690 -96.579200 11.754300 -0.000000 0.000003 -0.155752 -0.192232 -16.461500 -2.192510 6.469440 -0.000001 -176.695000 12.569400 114.912000 -39.081100 -0.002282 -0.040193 0.033669 0.022725 126.942000 -40.985400 0.000008 0.000006 -1.207740 4.330500 -7.297050 -11.754300 -0.000006 -0.000006 -0.014935 -0.137410 -22.179300
0.000000 0.000000 0.000000 0.000000 0.000000 -0.000000 2.629860 83.934600 -384.427000 87.096000 11.556200 -13.349000 15.735700 0.000005 -0.000001 60.802200 80.427800 -60.210100 8.984550 -0.406207 -0.000000 9.082950 -9.283180 1.924170 16.377300 -0.000001 -0.000001 -3.294630 -5.620800 0.693246 6.456720 -0.000001 -0.000000 -9.286030 -3.047970 6.983020 12.994200 -0.242716 4.980390 -88.718100 -4.900110 -75.322000 5.348090 -0.000007 -0.000001 -59.149800 7.245850 -37.451900 24.328600 0.000019 0.000005 4.136190 0.264004 -86.418300 22.291600 -0.000001 0.000005 3.539100 5.504390 -6.711770 12.994500 -0.242716 -4.980390 88.555300 4.364030 -71.655000 -5.348130 -0.000001 -0.000004 -62.455400 26.153500 29.181700 -24.328900 0.000322 -0.000009 -4.496890 -7.144100 -32.314000 -22.291500 -0.000108 -0.000004 2.326180 5.494300 -6.304420 -2.192480 -6.469440 -0.000000 -173.564000 -3.508580 -12.815200 39.081100 -0.000007 -0.000012 0.001216 -0.001270 43.681300 40.985400 -0.000006 -0.000013 3.242080 2.626690 -85.695400 11.754300 -0.000000 0.000003 -0.569415 -0.698063 -24.257600 -2.192510 6.469440 -0.000001 -172.044000 6.830120 111.729000 -39.081100 -0.002282 -0.040193 -0.009492 -0.006649 117.086000 -40.985400 0.000008 0.000006 2.779580 3.684970 -23.335100 -11.754300 -0.000006 -0.000006 -0.012123 -0.118872 -21.419200
0.000000 0.000000 0.000000 0.000000 0.000000 -0.000000 1.704330 88.479800 -374.317000 84.068400 12.646000 -16.005500 15.735700 0.000005 -0.000001 49.964800 81.256200 -47.763900 8.984550 -0.406207 -0.000000 5.933900 -11.256100 4.993230 16.377300 -0.000001 -0.000001 -2.271340 -4.460110 0.743933 6.456720 -0.000001 -0.000000 -7.279590 -0.003885 5.724990 12.994200 -0.242716 4.980390 -88.149200 -6.841280 -74.823400 5.348090 -0.000007 -0.000001 -61.684300 7.821480 -34.910100 24.328600 0.000019 0.000005 2.102620 -0.072225 -91.952600 22.291600 -0.000001 0.000005 2.078280 5.498540 -6.471740 12.994500 -0.242716 -4.980390 89.596300 1.148430 -70.614600 -5.348130 -0.000001 -0.000004 -61.764500 24.359500 33.428800 -24.328900 0.000322 -0.000009 -4.069770 -5.599300 -36.092500 -22.291500 -0.000108 -0.000004 3.291630 5.501480 -6.595250 -2.192480 -6.469440 -0.000000 -168.592000 -4.617520 -6.927120 39.081100 -0.000007 -0.000012 -0.002740 0.004445 31.656700 40.985400 -0.000006 -0.000013 1.081630 4.209910 -62.679700 11.754300 -0.000000 0.000003 -0.179663 -0.610216 -42.589200 -2.192510 6.469440 -0.000001 -169.375000 3.439270 111.244000 -39.081100 -0.002282 -0.040193 0.114608 0.024345 102.383000 -40.985400 0.000008 0.000006 6.907990 -2.192960 -40.628300 -11.754300 -0.000006 -0.000006 -0.011091 -0.111619 -21.122200
